<?xml version="1.0" standalone="no"?>
<!DOCTYPE svg PUBLIC "-//W3C//DTD SVG 20010904//EN"
 "http://www.w3.org/TR/2001/REC-SVG-20010904/DTD/svg10.dtd">
<svg version="1.0" xmlns="http://www.w3.org/2000/svg"
 width="1222.000000pt" height="1222.000000pt" viewBox="0 0 1222.000000 1222.000000"
 preserveAspectRatio="xMidYMid meet">
<metadata>
Created by potrace 1.11, written by Peter Selinger 2001-2013
</metadata>
<g transform="translate(0.000000,1222.000000) scale(0.100000,-0.100000)"
fill="#000000" stroke="none">
<path d="M5457 11354 c-1 -1 -67 -5 -147 -8 -80 -4 -163 -9 -185 -11 -22 -2
-67 -7 -100 -10 -71 -6 -212 -23 -240 -29 -11 -2 -42 -7 -70 -10 -376 -51
-1011 -230 -1333 -377 -34 -16 -64 -29 -67 -29 -2 0 -48 -21 -102 -46 -450
-209 -803 -430 -1207 -754 -21 -17 -15 -12 -121 -105 -459 -400 -843 -870
-1137 -1390 -86 -151 -248 -484 -248 -508 0 -7 -4 -17 -9 -22 -12 -14 -103
-252 -144 -380 -88 -271 -162 -581 -193 -804 -2 -19 -6 -47 -9 -62 -6 -31 -11
-76 -21 -169 -3 -36 -8 -78 -9 -95 -23 -202 -23 -703 -1 -880 2 -16 7 -61 11
-100 4 -38 8 -81 10 -95 2 -14 6 -47 10 -75 3 -27 8 -61 11 -75 3 -14 8 -36
10 -50 5 -32 15 -88 21 -120 43 -236 141 -579 241 -845 153 -404 397 -850 660
-1205 72 -98 233 -300 267 -336 5 -6 38 -42 72 -80 133 -149 379 -386 538
-519 71 -59 120 -98 230 -183 324 -248 758 -497 1179 -676 361 -154 874 -306
1216 -361 19 -3 60 -10 90 -15 64 -11 106 -17 175 -25 28 -4 57 -8 65 -10 8
-2 58 -7 110 -11 52 -3 97 -8 100 -9 43 -25 1762 -25 1971 0 19 2 63 6 99 10
36 3 76 8 90 10 14 2 50 6 80 10 30 3 96 13 145 21 50 8 104 17 120 20 17 2
50 9 75 14 25 5 56 12 70 14 230 39 790 208 985 296 11 5 70 30 130 56 461
196 928 482 1330 814 89 73 110 92 229 200 118 108 311 307 411 424 28 33 55
64 60 70 6 6 38 45 71 86 374 466 667 997 855 1550 52 154 130 419 143 490 3
14 16 79 29 145 14 66 27 134 30 150 22 130 28 172 37 255 39 335 45 811 15
1054 -2 16 -6 59 -10 95 -3 36 -10 91 -15 121 -5 30 -12 77 -15 105 -5 41 -33
188 -51 270 -2 11 -6 31 -9 45 -25 137 -151 558 -205 685 -4 11 -16 40 -25 65
-9 25 -23 59 -30 75 -8 17 -26 59 -40 95 -62 149 -236 484 -319 615 -18 28
-51 79 -74 115 -22 36 -45 70 -50 76 -5 5 -15 21 -22 35 -7 13 -25 40 -40 59
-15 19 -68 90 -119 158 -50 67 -102 135 -115 150 -13 15 -54 63 -92 107 -443
518 -1039 984 -1659 1298 -122 62 -322 157 -331 157 -2 0 -27 11 -56 24 -29
13 -120 49 -203 79 -137 50 -222 79 -405 135 -64 20 -331 87 -380 96 -14 2
-56 11 -95 19 -38 9 -83 18 -100 20 -16 3 -73 12 -125 21 -52 8 -115 18 -140
20 -25 3 -61 8 -80 11 -64 9 -199 20 -365 31 -73 5 -1473 12 -1478 8z"/>
</g>
</svg>
